<svg width="169" height="184" viewBox="0 0 169 184" fill="none" xmlns="http://www.w3.org/2000/svg">
<rect width="169" height="184" fill="white"/>
<path opacity="0.3" d="M70.3333 106H50.7778V124.667H70.3333V106Z" fill="#779FE5"/>
<path opacity="0.3" d="M70.3333 59.3333H50.7778V78H70.3333V59.3333Z" fill="#779FE5"/>
<path opacity="0.3" d="M119.222 59.3333H99.6667V78H119.222V59.3333Z" fill="#779FE5"/>
<path d="M41 87.3333H80.1111V50H41V87.3333ZM50.7778 59.3333H70.3333V78H50.7778V59.3333Z" fill="#779FE5"/>
<path d="M89.8889 50V87.3333H129V50H89.8889ZM119.222 78H99.6667V59.3333H119.222V78Z" fill="#779FE5"/>
<path d="M41 134H80.1111V96.6667H41V134ZM50.7778 106H70.3333V124.667H50.7778V106Z" fill="#779FE5"/>
<path d="M114.333 96.6667H104.556V110.667H89.8889V120H104.556V134H114.333V120H129V110.667H114.333V96.6667Z" fill="#779FE5"/>
</svg>
